<svg xmlns="http://www.w3.org/2000/svg" viewBox="0 0 512 512">
  <path fill="none" stroke="#EC008C" stroke-width="15" stroke-miterlimit="10" d="M432.24 256c0-28.16-15.53-52.68-38.5-65.48-4.36-37.24-36-66.13-74.4-66.13-7.6 0-14.93 1.1-21.84 3.2-13.62-18.8-35.7-31-60.67-31-35.92 0-65.92 25.3-73.23 59-36.48.4-65.93 30.06-65.93 66.63 0 36.82 29.84 66.67 66.66 66.67l1.8-.03c1.72 23.47 21.3 42 45.2 42H260v84.6l39.48-39.66c1.92.27 3.87.4 5.85.4 16.72 0 31.3-9.04 39.17-22.5h.38c19.3 0 35.78-12.06 42.32-29.05 26.5-11.53 45.04-37.95 45.04-68.7z"/>
  <g fill="none" stroke="#EC008C" stroke-width="15" stroke-linecap="round" stroke-miterlimit="10">
    <path d="M109.53 184.37c12.04-17.35 32.1-28.7 54.8-28.7 21.24 0 40.15 9.92 52.36 25.4m210.4 47.6c-10.5-26.62-35.7-45.82-65.6-47.5m-57.4 23.4c4.9-9.94 7.6-21.13 7.6-32.96 0-41.3-33.56-74.9-74.95-74.9-6.3 0-12.45.8-18.3 2.3m9.15 144.38c-5.06-1.96-10.57-3.03-16.33-3.03-25.04 0-45.34 20.3-45.34 45.34 0 19.3 12.03 35.8 29.03 42.33m110.3 2.7c7.77 13.83 22.6 23.17 39.56 23.17 25.04 0 45.34-20.3 45.34-45.38 0-13-5.44-24.7-14.2-33"/>
    <path d="M256.77 290.65c14.48-6.46 25.15-20.34 26.72-37.25 2.3-24.93-16.1-47.02-41-49.34-13-1.2-25.1 3.17-34.2 11.13m99.9 65.4c5.05 1.9 10.6 3 16.32 3 25.03 0 45.33-20.3 45.33-45.37 0-4.8-.75-9.47-2.15-13.83"/>
  </g>
</svg>
